# xmcd CD database file
#
# Track frame offsets:
#	150
#	19355
#	35463
#	51611
#	65881
#	86070
#	106887
#	125113
#	139133
#	158323
#
# Disc length: 2564 seconds
#
# Revision: 3
# Processed by: cddbd v1.5.2PL0 Copyright (c) Steve Scherf et al.
# Submitted via: CDex 1.70beta2
#
DISCID=900a020a
DTITLE=Dave Gordon - Green Things
DYEAR=1900
DGENRE=Jazz
TTITLE0=Rock The Kalnor
TTITLE1=Okeedokie
TTITLE2=Con'sice
TTITLE3=The Wheel
TTITLE4=Five
TTITLE5=Belugellowondefun
TTITLE6=Green Things
TTITLE7=Calliope
TTITLE8=Riverview In Two
TTITLE9=Corrugated Radio
EXTD=
EXTT0=
EXTT1=
EXTT2=
EXTT3=
EXTT4=
EXTT5=
EXTT6=
EXTT7=
EXTT8=
EXTT9=
PLAYORDER=
